HIERARCHY
ROOT Hips
{
	OFFSET 0.000000 0.000000 0.000000
	CHANNELS 6 Xposition Yposition Zposition Xrotation Yrotation Zrotation
	JOINT LeftUpLeg_virtual
	{
		OFFSET 0.000000 0.000000 0.000000
		CHANNELS 3 Xrotation Yrotation Zrotation
		JOINT LeftUpLeg
		{
			OFFSET 15.427100 -6.655098 0.678600
			CHANNELS 3 Xrotation Yrotation Zrotation
			JOINT LeftLeg
			{
				OFFSET 4.081073 -39.591068 13.024000
				CHANNELS 3 Xrotation Yrotation Zrotation
				JOINT LeftFoot
				{
					OFFSET -4.081074 -37.707932 -15.979700
					CHANNELS 3 Xrotation Yrotation Zrotation
					JOINT LeftToeBase
					{
						OFFSET 5.346399 -15.068900 20.645000
						CHANNELS 3 Xrotation Yrotation Zrotation
						JOINT LeftToe_End
						{
							OFFSET 2.754700 0.931300 11.300900
							CHANNELS 3 Xrotation Yrotation Zrotation
							End Site
							{
								OFFSET 0 0 0
							}
						}
					}
				}
			}
		}
	}
	JOINT RightUpLeg_virtual
	{
		OFFSET 0.000000 0.000000 0.000000
		CHANNELS 3 Xrotation Yrotation Zrotation
		JOINT RightUpLeg
		{
			OFFSET -15.569500 -6.655098 0.678600
			CHANNELS 3 Xrotation Yrotation Zrotation
			JOINT RightLeg
			{
				OFFSET -4.081825 -39.591045 13.023800
				CHANNELS 3 Xrotation Yrotation Zrotation
				JOINT RightFoot
				{
					OFFSET 4.081824 -37.707954 -15.979600
					CHANNELS 3 Xrotation Yrotation Zrotation
					JOINT RightToeBase
					{
						OFFSET -5.346400 -15.068900 20.645000
						CHANNELS 3 Xrotation Yrotation Zrotation
						JOINT RightToe_End
						{
							OFFSET -2.754700 0.931300 11.300900
							CHANNELS 3 Xrotation Yrotation Zrotation
							End Site
							{
								OFFSET 0 0 0
							}
						}
					}
				}
			}
		}
	}
	JOINT Spine_virtual
	{
		OFFSET 0.000000 0.000000 0.000000
		CHANNELS 3 Xrotation Yrotation Zrotation
		JOINT Spine
		{
			OFFSET -0.279200 12.230698 -2.892100
			CHANNELS 3 Xrotation Yrotation Zrotation
			JOINT Spine1
			{
				OFFSET -0.232667 10.192268 -1.242267
				CHANNELS 3 Xrotation Yrotation Zrotation
				JOINT Spine1_split
				{
					OFFSET -0.232667 10.192268 -1.242267
					CHANNELS 3 Xrotation Yrotation Zrotation
					JOINT Spine2
					{
						OFFSET -0.232667 10.192268 -1.242267
						CHANNELS 3 Xrotation Yrotation Zrotation
						JOINT Neck_virtual
						{
							OFFSET 0.000000 0.000000 0.000000
							CHANNELS 3 Xrotation Yrotation Zrotation
							JOINT Neck
							{
								OFFSET -0.418800 17.814194 8.416900
								CHANNELS 3 Xrotation Yrotation Zrotation
								JOINT Head
								{
									OFFSET 0.000000 7.031097 3.806800
									CHANNELS 3 Xrotation Yrotation Zrotation
									JOINT HeadTop_End
									{
										OFFSET 0.000000 24.646606 12.978600
										CHANNELS 3 Xrotation Yrotation Zrotation
										End Site
										{
											OFFSET 0 0 0
										}
									}
								}
							}
						}
						JOINT LeftShoulder_virtual
						{
							OFFSET 0.000000 0.000000 0.000000
							CHANNELS 3 Xrotation Yrotation Zrotation
							JOINT LeftShoulder
							{
								OFFSET 8.476499 7.247704 -3.868750
								CHANNELS 3 Xrotation Yrotation Zrotation
								JOINT LeftShoulder_split
								{
									OFFSET 8.476499 7.247704 -3.868750
									CHANNELS 3 Xrotation Yrotation Zrotation
									JOINT LeftArm
									{
										OFFSET 9.308998 -2.777710 0.208600
										CHANNELS 3 Xrotation Yrotation Zrotation
										JOINT LeftForeArm
										{
											OFFSET 29.972298 0.000000 0.000000
											CHANNELS 3 Xrotation Yrotation Zrotation
											JOINT LeftHand
											{
												OFFSET 26.026505 0.000000 0.000000
												CHANNELS 3 Xrotation Yrotation Zrotation
												End Site
												{
													OFFSET 0 0 0
												}
											}
										}
									}
								}
							}
						}
						JOINT RightShoulder_virtual
						{
							OFFSET 0.000000 0.000000 0.000000
							CHANNELS 3 Xrotation Yrotation Zrotation
							JOINT RightShoulder
							{
								OFFSET -7.570500 7.247704 -3.868750
								CHANNELS 3 Xrotation Yrotation Zrotation
								JOINT RightShoulder_split
								{
									OFFSET -7.570500 7.247704 -3.868750
									CHANNELS 3 Xrotation Yrotation Zrotation
									JOINT RightArm
									{
										OFFSET -9.308998 -2.777710 0.208500
										CHANNELS 3 Xrotation Yrotation Zrotation
										JOINT RightForeArm
										{
											OFFSET -29.972300 0.000000 0.000000
											CHANNELS 3 Xrotation Yrotation Zrotation
											JOINT RightHand
											{
												OFFSET -26.026505 0.000000 0.000000
												CHANNELS 3 Xrotation Yrotation Zrotation
												End Site
												{
													OFFSET 0 0 0
												}
											}
										}
									}
								}
							}
						}
					}
				}
			}
		}
	}
}
MOTION
Frames: 10
Frame Time: 0.03333333
0.137103 93.363487 -1.554939 0.000000 0.000000 0.000000 -5.395432 -5.765061 3.427129 -10.888156 11.165199 7.518995 15.174490 6.699841 0.512232 2.488789 1.250356 -6.298785 -0.024700 0.086319 -1.344523 0.000000 0.000000 0.000000 -4.993095 -4.541458 3.613574 7.942830 -14.956016 -7.356058 16.753525 -8.149487 -5.370800 -17.777321 -6.805172 8.277154 -4.556966 0.079699 -0.312051 0.000000 0.000000 0.000000 -5.827861 -6.189047 3.263290 5.157621 1.679464 -2.210966 0.888910 0.351777 -0.360786 0.812786 0.376864 -0.056730 0.000000 0.000000 0.000000 1.103110 0.758388 -0.637178 1.523429 5.684242 0.290311 4.353198 -10.708681 3.596714 0.000000 0.000000 0.000000 0.935365 0.738784 -0.847274 -0.138286 -15.771735 -17.982561 -1.333763 -1.417358 -2.938870 13.877712 -1.949169 -32.875090 110.713719 -89.367274 110.279483 0.000000 0.000000 0.000000 0.806838 0.630077 -0.729622 0.438816 15.475236 12.510936 1.901741 2.838227 0.588538 7.579122 21.163570 38.360808 -173.835336 78.875564 173.316610 0.000000 0.000000 0.000000 
0.562212 93.134613 -1.659946 0.000000 0.000000 0.000000 -5.351475 -6.082762 3.477159 -10.893111 10.626242 7.292543 15.569425 6.546439 0.653803 2.111438 1.439307 -6.486991 -0.136990 0.056935 -1.275610 0.000000 0.000000 0.000000 -5.147740 -4.616649 3.647354 7.782451 -15.377969 -7.618039 16.873012 -8.156022 -5.385737 -17.820582 -6.814258 8.075359 -4.024822 0.010096 -0.303806 0.000000 0.000000 0.000000 -5.923735 -6.283307 3.209504 5.274176 1.641936 -2.176946 0.933806 0.316021 -0.323822 0.777953 0.415303 -0.043537 0.000000 0.000000 0.000000 1.063086 0.713134 -0.605629 1.469870 5.645308 0.220441 4.351494 -10.603802 3.541113 0.000000 0.000000 0.000000 0.932622 0.700839 -0.825939 -0.147590 -15.791614 -17.975263 -1.161610 -1.464526 -2.901642 13.987792 -1.749909 -33.021485 114.502295 -89.260867 114.050772 0.000000 0.000000 0.000000 0.824628 0.613988 -0.709862 0.436438 15.653942 12.634302 1.932043 2.927892 0.792367 7.693798 21.353553 38.500120 -173.794601 79.141702 173.278197 0.000000 0.000000 0.000000 
1.080333 92.598129 -1.621552 0.000000 0.000000 0.000000 -5.342717 -6.555392 3.601301 -11.271465 10.263520 6.988364 16.741262 6.413102 0.787884 1.250848 1.999785 -6.650628 -0.225216 0.060113 -1.273386 0.000000 0.000000 0.000000 -5.270183 -4.721523 3.748195 7.303922 -15.682300 -8.152737 17.549449 -8.063603 -5.346758 -18.325208 -6.916577 7.870621 -3.751641 -0.024028 -0.312694 0.000000 0.000000 0.000000 -6.039228 -6.461975 3.228233 5.408897 1.505803 -2.160526 0.992257 0.206876 -0.251177 0.742673 0.420777 -0.035817 0.000000 0.000000 0.000000 1.041827 0.597793 -0.534387 1.471950 5.600653 0.075178 4.309037 -10.525508 3.241156 0.000000 0.000000 0.000000 0.955528 0.588156 -0.758125 -0.163376 -15.814128 -18.011053 -1.021358 -1.470022 -2.794577 14.327942 -1.335260 -33.190075 130.552086 -88.994387 130.085952 0.000000 0.000000 0.000000 0.844845 0.519817 -0.639776 0.449374 15.793235 12.720181 1.923029 2.983413 0.850954 7.727969 21.890533 38.747759 -173.771678 79.582482 173.298770 0.000000 0.000000 0.000000 
1.630658 91.870827 -1.533092 0.000000 0.000000 0.000000 -5.368373 -7.089566 3.793982 -11.978301 10.124103 6.590328 18.343284 6.295556 0.886769 0.028668 2.826209 -6.820821 -0.219191 0.092662 -1.323269 0.000000 0.000000 0.000000 -5.331276 -4.970203 3.912575 6.501516 -15.805189 -8.922003 18.587834 -7.811644 -5.246877 -19.064477 -7.032935 7.764527 -3.826083 -0.025442 -0.336966 0.000000 0.000000 0.000000 -6.097505 -6.736041 3.314661 5.511710 1.302331 -2.171833 1.047663 0.043113 -0.156962 0.716730 0.452512 -0.037626 0.000000 0.000000 0.000000 1.031339 0.430083 -0.442461 1.523435 5.553772 -0.130098 4.173010 -10.461984 2.710280 0.000000 0.000000 0.000000 0.997071 0.414952 -0.655446 -0.178587 -15.846327 -18.071171 -0.952994 -1.478947 -2.693784 14.846839 -0.748609 -33.379981 145.057304 -88.497928 144.582141 0.000000 0.000000 0.000000 0.858008 0.361051 -0.532445 0.490919 15.877149 12.754717 1.869241 2.935201 0.778384 7.610541 22.621523 39.131875 -173.728443 80.103461 173.329642 0.000000 0.000000 0.000000 
2.194250 91.064278 -1.512238 0.000000 0.000000 0.000000 -5.421054 -7.697447 4.002717 -12.920239 10.169230 6.127355 20.067543 6.143945 0.939306 -1.282358 3.795824 -7.088017 -0.151391 0.141830 -1.373823 0.000000 0.000000 0.000000 -5.322342 -5.465213 4.117150 5.400491 -15.715717 -9.841053 19.791455 -7.370355 -5.088195 -19.800599 -7.115893 7.827803 -4.080232 -0.000307 -0.352455 0.000000 0.000000 0.000000 -6.052987 -7.137161 3.454296 5.548478 1.058053 -2.215304 1.089646 -0.159156 -0.056318 0.751345 0.489199 -0.029214 0.000000 0.000000 0.000000 1.024863 0.226653 -0.346501 1.600591 5.493732 -0.365002 3.912896 -10.429066 1.998707 0.000000 0.000000 0.000000 1.046640 0.200051 -0.538187 -0.189596 -15.891791 -18.142627 -0.950557 -1.526926 -2.635567 15.500995 -0.013493 -33.595033 154.091048 -87.804117 153.606952 0.000000 0.000000 0.000000 0.867041 0.159447 -0.407164 0.565139 15.904898 12.742666 1.797185 2.840842 0.659981 7.333901 23.404955 39.687173 -173.626154 80.661583 173.324629 0.000000 0.000000 0.000000 
2.745943 90.300850 -1.644459 0.000000 0.000000 0.000000 -5.450973 -8.323008 4.190282 -13.975555 10.362789 5.630494 21.699427 5.932585 0.945364 -2.445809 4.790205 -7.444223 -0.080791 0.191737 -1.369818 0.000000 0.000000 0.000000 -5.231332 -6.221493 4.318880 4.015554 -15.459952 -10.816375 21.063974 -6.730304 -4.885502 -20.371133 -7.152827 8.069724 -4.318253 0.040299 -0.342603 0.000000 0.000000 0.000000 -5.891641 -7.666249 3.608531 5.501066 0.793990 -2.286543 1.114454 -0.388104 0.040418 0.734795 0.516273 0.026202 0.000000 0.000000 0.000000 1.017095 0.005542 -0.257189 1.662024 5.403013 -0.599158 3.534077 -10.449829 1.168237 0.000000 0.000000 0.000000 1.092934 -0.040047 -0.421444 -0.198219 -15.943921 -18.214125 -0.997410 -1.605638 -2.612291 16.216860 0.817864 -33.826761 159.320364 -87.013318 158.822881 0.000000 0.000000 0.000000 0.864559 -0.065403 -0.280575 0.661404 15.901128 12.688137 1.753962 2.729972 0.525997 6.910157 24.140212 40.408820 -173.424637 81.248010 173.232626 0.000000 0.000000 0.000000 
3.288654 89.640793 -1.856102 0.000000 0.000000 0.000000 -5.437516 -8.914537 4.324922 -15.019659 10.640689 5.170639 23.128393 5.696883 0.926101 -3.328615 5.779966 -7.801510 -0.054163 0.232870 -1.308345 0.000000 0.000000 0.000000 -5.079006 -7.225401 4.480117 2.406175 -15.145627 -11.788109 22.388925 -5.916715 -4.664018 -20.715300 -7.174594 8.407900 -4.373088 0.088285 -0.298770 0.000000 0.000000 0.000000 -5.664123 -8.361184 3.742100 5.395048 0.524859 -2.373390 1.124971 -0.637734 0.130942 0.674826 0.522776 0.084235 0.000000 0.000000 0.000000 1.009525 -0.226507 -0.178288 1.687838 5.266355 -0.809082 3.072534 -10.557939 0.291425 0.000000 0.000000 0.000000 1.134071 -0.294539 -0.314325 -0.209308 -16.006290 -18.273695 -1.062615 -1.697863 -2.596077 16.921983 1.717383 -34.061802 162.608841 -86.183559 162.093366 0.000000 0.000000 0.000000 0.852131 -0.307011 -0.160627 0.764244 15.894798 12.608765 1.738741 2.603262 0.404258 6.381403 24.782974 41.261204 -173.084138 81.880540 173.004307 0.000000 0.000000 0.000000 
3.786888 89.094475 -2.129730 0.000000 0.000000 0.000000 -5.383258 -9.580133 4.385746 -15.958891 10.954303 4.841209 24.323810 5.504576 0.906377 -3.891788 6.771990 -8.057515 -0.088356 0.254852 -1.210716 0.000000 0.000000 0.000000 -4.894210 -8.267581 4.591873 0.650923 -14.914036 -12.676357 23.712236 -4.992384 -4.459349 -20.813045 -7.253973 8.759812 -4.201389 0.136096 -0.231135 0.000000 0.000000 0.000000 -5.459075 -9.215033 3.830354 5.258922 0.262122 -2.474534 1.121406 -0.903855 0.211375 0.650473 0.510013 0.102474 0.000000 0.000000 0.000000 0.999857 -0.466121 -0.112275 1.681024 5.087208 -0.978913 2.571064 -10.789573 -0.564016 0.000000 0.000000 0.000000 1.173984 -0.554107 -0.218663 -0.216758 -16.079981 -18.307950 -1.120365 -1.743299 -2.590131 17.553024 2.648384 -34.269665 164.873731 -85.362488 164.336687 0.000000 0.000000 0.000000 0.839747 -0.555204 -0.051922 0.854644 15.900153 12.522646 1.723673 2.482521 0.327321 5.816100 25.371571 42.152857 -172.645995 82.552262 172.667633 0.000000 0.000000 0.000000 
4.236312 88.664497 -2.486526 0.000000 0.000000 0.000000 -5.299769 -10.334223 4.396415 -16.733333 11.242695 4.665737 25.261731 5.410425 0.908715 -4.227036 7.738333 -8.155474 -0.160506 0.256418 -1.097255 0.000000 0.000000 0.000000 -4.721092 -9.218062 4.638061 -1.185470 -14.914886 -13.447457 25.031446 -4.005084 -4.306350 -20.659350 -7.499917 9.095198 -3.862005 0.176417 -0.167120 0.000000 0.000000 0.000000 -5.274133 -10.185705 3.861938 5.118091 0.008057 -2.585660 1.111127 -1.177061 0.278328 0.653516 0.470224 0.143642 0.000000 0.000000 0.000000 0.990910 -0.710656 -0.055630 1.665508 4.896847 -1.102315 2.077854 -11.157931 -1.356176 0.000000 0.000000 0.000000 1.222128 -0.815007 -0.132962 -0.214242 -16.159290 -18.317787 -1.179765 -1.739377 -2.598306 18.097054 3.563564 -34.429003 166.585500 -84.591039 166.028990 0.000000 0.000000 0.000000 0.833876 -0.805095 0.046389 0.923535 15.920585 12.451044 1.694398 2.383696 0.283902 5.266384 25.939558 42.989962 -172.159918 83.212277 172.267671 0.000000 0.000000 0.000000 
4.594408 88.349609 -2.873817 0.000000 0.000000 0.000000 -5.225547 -11.109947 4.371878 -17.315446 11.486333 4.641743 25.887424 5.387921 0.944354 -4.363873 8.647525 -8.213714 -0.223114 0.246042 -0.987202 0.000000 0.000000 0.000000 -4.593016 -10.075765 4.633681 -2.996377 -15.300013 -14.071965 26.318331 -3.022961 -4.245884 -20.301691 -8.030924 9.396580 -3.521908 0.201833 -0.121172 0.000000 0.000000 0.000000 -5.152227 -11.204572 3.839486 4.988234 -0.250920 -2.691606 1.109006 -1.450201 0.333304 0.714633 0.432995 0.187866 0.000000 0.000000 0.000000 0.991855 -0.959622 -0.004173 1.682315 4.720752 -1.171344 1.647287 -11.650120 -2.065882 0.000000 0.000000 0.000000 1.280065 -1.077817 -0.056796 -0.204167 -16.244224 -18.305341 -1.232216 -1.700963 -2.599493 18.576549 4.420938 -34.544249 167.959611 -83.854355 167.384345 0.000000 0.000000 0.000000 0.840739 -1.057435 0.136759 0.980035 15.955537 12.410557 1.643502 2.305017 0.239149 4.724980 26.471394 43.760086 -171.585021 83.850469 171.762660 0.000000 0.000000 0.000000 
